# xmcd CD database file
#
# Track frame offsets:
#	150
#	21390
#	41384
#	56909
#	74515
#	97556
#	116056
#	131165
#	149103
#	164562
#	184867
#
# Disc length: 2700 seconds
#
# Revision: 0
# Processed by: cddbd v1.5.1PL0 Copyright (c) Steve Scherf et al.
# Submitted via: CDex 1.51
#
DISCID=a80a8a0b
DTITLE=Rodger Wilko - Rodger Wilko
DYEAR=2005
DGENRE=Country
TTITLE0=Fixed Among The Stars
TTITLE1=With You In Rome
TTITLE2=All Over Texas
TTITLE3=Wrapped For Me
TTITLE4=Good For The Heart
TTITLE5=Counting Reasons
TTITLE6=Honey, Please
TTITLE7=Somebody's Broken
TTITLE8=Needed Pain
TTITLE9=Underwater Dreamland
TTITLE10=Yesterday's Rain
EXTD=YEAR: 2005
EXTT0=
EXTT1=
EXTT2=
EXTT3=
EXTT4=
EXTT5=
EXTT6=
EXTT7=
EXTT8=
EXTT9=
EXTT10=
PLAYORDER=
